<?xml version="1.0" encoding="utf-8"?>
<!-- Generator: Adobe Illustrator 22.0.1, SVG Export Plug-In . SVG Version: 6.00 Build 0)  -->
<svg version="1.1" id="Capa_1" xmlns="http://www.w3.org/2000/svg" xmlns:xlink="http://www.w3.org/1999/xlink" x="0px" y="0px"
	 viewBox="0 0 67.2 78.6" style="enable-background:new 0 0 67.2 78.6;" xml:space="preserve">
<style type="text/css">
	.st0{fill:#D7D7D7;}
	.st1{fill:#BCBCBC;}
	.st2{fill:#A5A5A5;}
	.st3{fill:#FFFFFF;}
	.st4{fill:#BFBFBF;}
	.st5{clip-path:url(#SVGID_2_);}
	.st6{fill:url(#SVGID_3_);}
	.st7{fill:url(#SVGID_4_);}
	.st8{fill:url(#SVGID_5_);}
	.st9{fill:#5D6069;}
</style>
<path class="st0" d="M63.3,0H4.1c-2.2,0-4,1.8-4,4v70.6c0,2.2,1.8,4,4,4h26.1c0-1.9,1.6-3.5,3.5-3.5s3.5,1.6,3.5,3.5h26.1
	c2.2,0,4-1.8,4-4V4C67.3,1.7,65.5,0,63.3,0z"/>
<path class="st1" d="M33.7,29.3L33.7,29.3c-0.7,0-1.2-0.5-1.2-1.2v-2.4c0-0.7,0.5-1.2,1.2-1.2l0,0c0.7,0,1.2,0.5,1.2,1.2v2.4
	C34.9,28.8,34.3,29.3,33.7,29.3z"/>
<path class="st1" d="M26.6,29.3L26.6,29.3c-0.7,0-1.2-0.5-1.2-1.2v-2.4c0-0.7,0.5-1.2,1.2-1.2l0,0c0.7,0,1.2,0.5,1.2,1.2v2.4
	C27.8,28.8,27.2,29.3,26.6,29.3z"/>
<path class="st1" d="M40.8,29.3L40.8,29.3c-0.7,0-1.2-0.5-1.2-1.2v-2.4c0-0.7,0.5-1.2,1.2-1.2l0,0c0.7,0,1.2,0.5,1.2,1.2v2.4
	C42,28.8,41.4,29.3,40.8,29.3z"/>
<path class="st1" d="M33.7,55.3L33.7,55.3c-0.7,0-1.2-0.5-1.2-1.2v-2.4c0-0.7,0.5-1.2,1.2-1.2l0,0c0.7,0,1.2,0.5,1.2,1.2v2.4
	C34.9,54.8,34.3,55.3,33.7,55.3z"/>
<path class="st1" d="M26.6,55.3L26.6,55.3c-0.7,0-1.2-0.5-1.2-1.2v-2.4c0-0.7,0.5-1.2,1.2-1.2l0,0c0.7,0,1.2,0.5,1.2,1.2v2.4
	C27.8,54.8,27.2,55.3,26.6,55.3z"/>
<path class="st1" d="M40.8,55.3L40.8,55.3c-0.7,0-1.2-0.5-1.2-1.2v-2.4c0-0.7,0.5-1.2,1.2-1.2l0,0c0.7,0,1.2,0.5,1.2,1.2v2.4
	C42,54.8,41.4,55.3,40.8,55.3z"/>
<rect x="22" y="29.1" class="st2" width="23.3" height="23.3"/>
<rect x="22" y="28.1" class="st3" width="23.3" height="23.3"/>
<circle class="st4" cx="33.7" cy="39.6" r="10"/>
<ellipse class="st0" cx="33.7" cy="40.2" rx="10" ry="9.5"/>
<g>
	<g>
		<defs>
			<ellipse id="SVGID_1_" cx="33.7" cy="40.2" rx="10" ry="9.5"/>
		</defs>
		<clipPath id="SVGID_2_">
			<use xlink:href="#SVGID_1_"  style="overflow:visible;"/>
		</clipPath>
		<g class="st5">
			<polygon class="st3" points="28.9,31.4 31.3,34.5 30.2,43.3 23.8,43.3 23.8,44.4 30.1,44.4 30,44.9 27.9,47.9 28.6,48.4 
				30.9,45.2 32.2,34.2 29.5,30.9 			"/>
			<polygon class="st3" points="43.6,43.3 36.9,43.3 35.9,34.6 38.3,31.6 37.6,31 35,34.3 36.2,45.2 36.3,45.3 38.5,48.5 39.2,48 
				37.1,45 37,44.4 43.7,44.4 			"/>
		</g>
	</g>
</g>
<path class="st3" d="M24.2,18L24.2,18c-0.8,0-1.5-0.7-1.5-1.5v-5.1c0-0.8,0.7-1.5,1.5-1.5l0,0c0.8,0,1.5,0.7,1.5,1.5v5.1
	C25.6,17.4,25,18,24.2,18z"/>
<linearGradient id="SVGID_3_" gradientUnits="userSpaceOnUse" x1="22.704" y1="66.05" x2="25.6433" y2="66.05" gradientTransform="matrix(1 0 0 -1 0 80)">
	<stop  offset="0" style="stop-color:#383838"/>
	<stop  offset="0.9929" style="stop-color:#1C1C1C"/>
</linearGradient>
<rect x="22.7" y="11.4" class="st6" width="2.9" height="5.1"/>
<path class="st3" d="M33.7,18L33.7,18c-0.8,0-1.5-0.7-1.5-1.5v-5.1c0-0.8,0.7-1.5,1.5-1.5l0,0c0.8,0,1.5,0.7,1.5,1.5v5.1
	C35.1,17.4,34.5,18,33.7,18z"/>
<linearGradient id="SVGID_4_" gradientUnits="userSpaceOnUse" x1="32.1898" y1="66.05" x2="35.1292" y2="66.05" gradientTransform="matrix(1 0 0 -1 0 80)">
	<stop  offset="0" style="stop-color:#383838"/>
	<stop  offset="0.9929" style="stop-color:#1C1C1C"/>
</linearGradient>
<rect x="32.2" y="11.4" class="st7" width="2.9" height="5.1"/>
<path class="st3" d="M43.1,18L43.1,18c-0.8,0-1.5-0.7-1.5-1.5v-5.1c0-0.8,0.7-1.5,1.5-1.5l0,0c0.8,0,1.5,0.7,1.5,1.5v5.1
	C44.6,17.4,44,18,43.1,18z"/>
<linearGradient id="SVGID_5_" gradientUnits="userSpaceOnUse" x1="41.6757" y1="66.05" x2="44.615" y2="66.05" gradientTransform="matrix(1 0 0 -1 0 80)">
	<stop  offset="0" style="stop-color:#383838"/>
	<stop  offset="0.9929" style="stop-color:#1C1C1C"/>
</linearGradient>
<rect x="41.7" y="11.4" class="st8" width="2.9" height="5.1"/>
<g>
	<path class="st9" d="M21.9,70h-1.3l-2.4-4v4H17v-6.1h1.3l2.4,4v-4h1.3V70z"/>
	<path class="st9" d="M25,70.1c-0.7,0-1.2-0.2-1.6-0.6c-0.4-0.4-0.6-0.9-0.6-1.6v-0.1c0-0.5,0.1-0.9,0.3-1.2
		c0.2-0.4,0.4-0.6,0.7-0.8c0.3-0.2,0.7-0.3,1.1-0.3c0.6,0,1.1,0.2,1.5,0.6s0.5,0.9,0.5,1.7v0.5H24c0,0.3,0.2,0.5,0.4,0.7
		c0.2,0.2,0.4,0.3,0.7,0.3c0.5,0,0.8-0.2,1.1-0.5l0.6,0.7c-0.2,0.3-0.4,0.5-0.7,0.6C25.8,70,25.4,70.1,25,70.1z M24.9,66.4
		c-0.2,0-0.4,0.1-0.6,0.2S24.1,67,24,67.3h1.7v-0.1c0-0.3-0.1-0.5-0.2-0.6C25.4,66.5,25.2,66.4,24.9,66.4z"/>
	<path class="st9" d="M27.4,67.7c0-0.4,0.1-0.8,0.3-1.2s0.4-0.6,0.7-0.8c0.3-0.2,0.7-0.3,1.1-0.3c0.6,0,1.1,0.2,1.5,0.6
		c0.4,0.4,0.6,0.9,0.6,1.5l0,0.3c0,0.7-0.2,1.3-0.6,1.7c-0.4,0.4-0.9,0.6-1.6,0.6c-0.7,0-1.2-0.2-1.6-0.6
		C27.6,69.1,27.4,68.5,27.4,67.7L27.4,67.7z M28.6,67.8c0,0.4,0.1,0.8,0.2,1c0.2,0.2,0.4,0.3,0.7,0.3c0.3,0,0.5-0.1,0.7-0.3
		c0.2-0.2,0.2-0.6,0.2-1.1c0-0.4-0.1-0.7-0.2-1c-0.2-0.2-0.4-0.3-0.7-0.3c-0.3,0-0.5,0.1-0.7,0.3C28.7,67,28.6,67.3,28.6,67.8z"/>
	<path class="st9" d="M33.8,67.9V70h-1.3v-6.1h2.4c0.5,0,0.9,0.1,1.2,0.3c0.3,0.2,0.6,0.4,0.8,0.7c0.2,0.3,0.3,0.7,0.3,1.1
		c0,0.6-0.2,1.1-0.6,1.4s-1,0.5-1.7,0.5H33.8z M33.8,66.9h1.1c0.3,0,0.6-0.1,0.8-0.2c0.2-0.2,0.3-0.4,0.3-0.7c0-0.3-0.1-0.5-0.3-0.7
		c-0.2-0.2-0.4-0.3-0.7-0.3h-1.1V66.9z"/>
	<path class="st9" d="M37.9,64.3c0-0.2,0.1-0.3,0.2-0.4c0.1-0.1,0.3-0.2,0.5-0.2c0.2,0,0.4,0.1,0.5,0.2c0.1,0.1,0.2,0.3,0.2,0.4
		c0,0.2-0.1,0.3-0.2,0.5c-0.1,0.1-0.3,0.2-0.5,0.2c-0.2,0-0.4-0.1-0.5-0.2S37.9,64.5,37.9,64.3z M39.2,70H38v-4.5h1.2V70z"/>
	<path class="st9" d="M42,66.8l0.8-1.4H44l-1.3,2.2l1.3,2.3h-1.3L42,68.6L41.2,70h-1.3l1.3-2.3l-1.3-2.2h1.3L42,66.8z"/>
	<path class="st9" d="M46.6,70.1c-0.7,0-1.2-0.2-1.6-0.6c-0.4-0.4-0.6-0.9-0.6-1.6v-0.1c0-0.5,0.1-0.9,0.3-1.2
		c0.2-0.4,0.4-0.6,0.7-0.8c0.3-0.2,0.7-0.3,1.1-0.3c0.6,0,1.1,0.2,1.5,0.6c0.4,0.4,0.5,0.9,0.5,1.7v0.5h-2.9c0,0.3,0.2,0.5,0.4,0.7
		c0.2,0.2,0.4,0.3,0.7,0.3c0.5,0,0.8-0.2,1.1-0.5l0.6,0.7c-0.2,0.3-0.4,0.5-0.7,0.6C47.3,70,47,70.1,46.6,70.1z M46.4,66.4
		c-0.2,0-0.4,0.1-0.6,0.2c-0.1,0.2-0.2,0.4-0.3,0.7h1.7v-0.1c0-0.3-0.1-0.5-0.2-0.6C46.9,66.5,46.7,66.4,46.4,66.4z"/>
	<path class="st9" d="M50.4,70h-1.2v-6.4h1.2V70z"/>
</g>
</svg>
