<?xml version="1.0" encoding="utf-8"?>
<!-- Generator: Adobe Illustrator 21.1.0, SVG Export Plug-In . SVG Version: 6.00 Build 0)  -->
<svg version="1.1" xmlns="http://www.w3.org/2000/svg" xmlns:xlink="http://www.w3.org/1999/xlink" x="0px" y="0px"
	 viewBox="0 0 102 66.9" style="enable-background:new 0 0 102 66.9;" xml:space="preserve">
<style type="text/css">
	.st0{fill:#D7D7D7;}
	.st1{fill:#5D6069;}
	.st2{fill:#0D0D0D;}
	.st3{fill:#353535;}
	.st4{fill:#D7D8D9;}
	.st5{fill:none;stroke:#58595B;stroke-width:0.6453;stroke-linecap:round;stroke-linejoin:round;}
	.st6{fill:none;stroke:#3F3F41;stroke-width:7.240000e-02;stroke-linecap:round;stroke-linejoin:round;}
	.st7{fill:none;stroke:#303032;stroke-width:0.6453;stroke-linecap:round;stroke-linejoin:round;}
	.st8{fill:none;stroke:#FF0D0D;stroke-miterlimit:10;}
</style>
<g id="svg2">
	<path class="st0" d="M98.1,0H4C1.8,0,0,1.8,0,4v58.9c0,2.2,1.8,4,4,4h26.6c0-1.9,1.6-3.5,3.5-3.5c1.9,0,3.5,1.6,3.5,3.5h27
		c0-1.9,1.6-3.5,3.5-3.5s3.5,1.6,3.5,3.5H98c2.2,0,4-1.8,4-4V4C102.1,1.8,100.3,0,98.1,0z"/>
	<g>
		<path class="st1" d="M32.9,53.3h-1.7V58H30v-4.7h-1.7v-0.9h4.6L32.9,53.3L32.9,53.3z"/>
		<path class="st1" d="M35.7,56h-0.9v2.1h-1.2v-5.7h2.1c0.7,0,1.2,0.1,1.6,0.4s0.5,0.7,0.5,1.3c0,0.4-0.1,0.7-0.3,1
			s-0.4,0.5-0.8,0.6l1.2,2.3v0.1h-1.3L35.7,56z M34.8,55.1h0.9c0.3,0,0.5-0.1,0.7-0.2s0.2-0.4,0.2-0.6c0-0.3-0.1-0.5-0.2-0.6
			s-0.4-0.2-0.7-0.2h-0.9V55.1z"/>
		<path class="st1" d="M40,58.1h-1.2v-5.7H40V58.1z"/>
	</g>
	<g>
		<path class="st1" d="M64.6,55.6h-2.2v1.5H65V58h-3.8v-5.6H65v0.9h-2.6v1.4h2.2V55.6z"/>
		<path class="st1" d="M70.1,56.2c0,0.6-0.3,1.1-0.7,1.4s-0.9,0.5-1.6,0.5s-1.3-0.2-1.7-0.7s-0.6-1.2-0.6-2v-0.3
			c0-0.5,0.1-1,0.3-1.4s0.5-0.7,0.8-1s0.8-0.3,1.2-0.3c0.7,0,1.2,0.2,1.6,0.5s0.6,0.8,0.7,1.5h-1.2c0-0.4-0.1-0.6-0.3-0.8
			s-0.4-0.2-0.8-0.2s-0.7,0.1-0.9,0.4s-0.3,0.7-0.3,1.3v0.4c0,0.6,0.1,1.1,0.3,1.3s0.5,0.4,0.9,0.4s0.6-0.1,0.8-0.2s0.3-0.4,0.3-0.8
			L70.1,56.2L70.1,56.2z"/>
		<path class="st1" d="M75.5,58.1h-1.2v-2.4H72v2.4h-1.2v-5.7H72v2.3h2.3v-2.3h1.2V58.1z"/>
	</g>
	<rect x="33.4" y="15.7" width="35.1" height="25.4"/>
	<g>
		<path d="M17.4,26c-0.8,0.2-1.6,1.2-1.6,2.4c0,1.1,0.8,2.2,1.6,2.4C18.3,31,22,32,22,32v-7.1L17.4,26z M18.3,29.4
			c-0.5,0-0.9-0.4-0.9-0.9s0.4-0.9,0.9-0.9s0.9,0.4,0.9,0.9C19.2,28.9,18.8,29.4,18.3,29.4z"/>
	</g>
	<g>
		<path d="M84.8,30.8c0.8-0.2,1.6-1.2,1.6-2.4c0-1.1-0.8-2.2-1.6-2.4c-0.9-0.2-4.6-1.2-4.6-1.2v7.1L84.8,30.8z M83.9,27.5
			c0.5,0,0.9,0.4,0.9,0.9s-0.4,0.9-0.9,0.9S83,28.9,83,28.4C83,27.9,83.4,27.5,83.9,27.5z"/>
	</g>
	<circle class="st2" cx="33.4" cy="28.4" r="12.7"/>
	<g>
		<circle class="st3" cx="33.4" cy="28.4" r="12.7"/>
	</g>
	<circle class="st4" cx="33.4" cy="28.4" r="2.2"/>
	<path class="st5" d="M21.4,30.7c-0.6-3.1,0-6.4,2-9.2c3.8-5.5,11.4-6.9,17-3.1"/>
	<g>
		<g>
			<path class="st6" d="M40,35.1c3.7-3.7,3.7-9.6,0-13.3c-3.7-3.7-9.6-3.7-13.3,0s-3.7,9.6,0,13.3S36.4,38.8,40,35.1z"/>
			<path class="st6" d="M27.5,34.4c-3.3-3.3-3.3-8.6,0-11.8c3.3-3.3,8.6-3.3,11.8,0c3.3,3.3,3.3,8.6,0,11.8
				C36,37.6,30.7,37.6,27.5,34.4z"/>
			<circle class="st6" cx="33.4" cy="28.4" r="7.3"/>
			<path class="st6" d="M28.9,32.9c-2.5-2.5-2.4-6.4,0-8.9c2.5-2.5,6.4-2.5,8.9,0s2.4,6.4,0,8.9C35.4,35.3,31.4,35.3,28.9,32.9z"/>
			<circle class="st6" cx="33.4" cy="28.4" r="5.2"/>
			<path class="st6" d="M30.4,31.4c-1.6-1.6-1.6-4.3,0-5.9s4.3-1.6,5.9,0c1.6,1.6,1.6,4.3,0,5.9C34.7,33,32.1,33,30.4,31.4z"/>
		</g>
	</g>
	<path class="st7" d="M28.3,39.5c6.1,2.8,13.4,0.1,16.2-6c1.5-3.3,1.4-7,0-10.1"/>
	<circle class="st2" cx="68.5" cy="28.4" r="12.7"/>
	<g>
		<circle class="st3" cx="68.5" cy="28.4" r="12.7"/>
	</g>
	<circle class="st4" cx="68.5" cy="28.4" r="2.2"/>
	<path class="st5" d="M56.5,30.7c-0.6-3.1,0-6.4,2-9.2c3.8-5.5,11.4-6.9,17-3.1"/>
	<g>
		<g>
			<path class="st6" d="M75.2,35.1c3.7-3.7,3.7-9.6,0-13.3c-3.7-3.7-9.6-3.7-13.3,0c-3.7,3.7-3.7,9.6,0,13.3
				C65.5,38.8,71.5,38.8,75.2,35.1z"/>
			<path class="st6" d="M62.6,34.4c-3.3-3.3-3.3-8.6,0-11.8c3.3-3.3,8.6-3.3,11.8,0c3.3,3.3,3.3,8.6,0,11.8
				C71.1,37.6,65.9,37.6,62.6,34.4z"/>
			<circle class="st6" cx="68.5" cy="28.4" r="7.3"/>
			<path class="st6" d="M64.1,32.9c-2.5-2.5-2.4-6.4,0-8.9c2.5-2.5,6.4-2.5,8.9,0s2.4,6.4,0,8.9C70.5,35.3,66.5,35.3,64.1,32.9z"/>
			<circle class="st6" cx="68.5" cy="28.4" r="5.2"/>
			<path class="st6" d="M65.5,31.4c-1.6-1.6-1.6-4.3,0-5.9s4.3-1.6,5.9,0s1.6,4.3,0,5.9C69.8,33,67.2,33,65.5,31.4z"/>
		</g>
	</g>
	<path class="st7" d="M63.4,39.5c6.1,2.8,13.4,0.1,16.2-6c1.5-3.3,1.4-7,0-10.1"/>
</g>
<g class="USSoundWave" id="soundA" style="display: none;">
	<circle class="st8" cx="33.6" cy="28.5" r="12.3"/>
</g>
<g class="USSoundWave" id="soundB" style="display: none;">
	<circle class="st8" cx="68.6" cy="28.5" r="12.6"/>
</g>
</svg>
