<?xml version="1.0" encoding="UTF-8" standalone="no"?>
<!-- Generator: Adobe Illustrator 18.1.1, SVG Export Plug-In . SVG Version: 6.00 Build 0)  -->

<svg
   xmlns:dc="http://purl.org/dc/elements/1.1/"
   xmlns:cc="http://creativecommons.org/ns#"
   xmlns:rdf="http://www.w3.org/1999/02/22-rdf-syntax-ns#"
   xmlns:svg="http://www.w3.org/2000/svg"
   xmlns="http://www.w3.org/2000/svg"
   xmlns:sodipodi="http://sodipodi.sourceforge.net/DTD/sodipodi-0.dtd"
   xmlns:inkscape="http://www.inkscape.org/namespaces/inkscape"
   version="1.1"
   id="Layer_1"
   x="0px"
   y="0px"
   viewBox="-583.9 376.1 54.9 82.7"
   enable-background="new -583.9 376.1 54.9 82.7"
   xml:space="preserve"
   sodipodi:docname="led-ilu.svg"
   inkscape:version="0.92.2 (unknown)"><metadata
     id="metadata22"><rdf:RDF><cc:Work
         rdf:about=""><dc:format>image/svg+xml</dc:format><dc:type
           rdf:resource="http://purl.org/dc/dcmitype/StillImage" /><dc:title></dc:title></cc:Work></rdf:RDF></metadata><defs
     id="defs20" /><sodipodi:namedview
     pagecolor="#ffffff"
     bordercolor="#666666"
     borderopacity="1"
     objecttolerance="10"
     gridtolerance="10"
     guidetolerance="10"
     inkscape:pageopacity="0"
     inkscape:pageshadow="2"
     inkscape:window-width="1025"
     inkscape:window-height="665"
     id="namedview18"
     showgrid="false"
     inkscape:zoom="9.28"
     inkscape:cx="27.450001"
     inkscape:cy="51.074741"
     inkscape:window-x="103"
     inkscape:window-y="1176"
     inkscape:window-maximized="0"
     inkscape:current-layer="icon" /><g
     id="icon"><path
       style="fill:#ffff00"
       inkscape:connector-curvature="0"
       d="m -546.6,410.5 v -9 c 0,-5.9 -4.8,-10.7 -10.7,-10.7 -5.9,0 -10.7,4.8 -10.7,10.7 v 20.7 c 2.2,2.5 6.2,4.2 10.7,4.2 7,0 12.7,-4 12.7,-8.9 v -2.3 c -0.1,-1.7 -0.8,-3.3 -2,-4.7 z"
       enable-background="new    "
       id="path16" /><ellipse
       style="opacity:0.25;fill:#ffff00"
       ry="7.5"
       rx="10.7"
       cy="415.20001"
       cx="-557.40002"
       enable-background="new    "
       id="ellipse24" /><polygon
       style="fill:#bac1cc"
       points="-563.3,415.2 -563.3,410.7 -559,410.7 -552.9,404.2 -562.9,404.2 -564.8,405.5 -564.8,415.2 "
       id="polygon28" /><polygon
       style="fill:#bac2ce"
       points="-556.9,410.7 -551.3,410.7 -551.3,415.2 -550,415.2 -550,403.8 -551.8,403.8 -551.1,404.5 "
       id="polygon30" /><path
       style="opacity:0.76000001;fill:#ffffff"
       inkscape:connector-curvature="0"
       d="m -552.4,396.5 2.2,-0.4 c -1.3,-1.7 -3.2,-3 -5.4,-3.4 l 0.4,1.6 c 1.2,0.5 2.2,1.2 2.8,2.2 z"
       enable-background="new    "
       id="path34" /><path
       style="opacity:0.8;fill:#ffffff"
       inkscape:connector-curvature="0"
       d="m -566.9,421 v 2.3 c 1,0.8 2.2,1.5 3.5,2 V 423 c -1.4,-0.5 -2.6,-1.2 -3.5,-2 z"
       enable-background="new    "
       id="path36" /><path
       style="opacity:0.7;fill:#e7ebf2"
       inkscape:connector-curvature="0"
       d="m -551.3,421.5 c -0.4,0.2 -0.8,0.3 -1.2,0.5 -0.1,0 -0.2,0.1 -0.3,0.1 -0.9,0.3 -1.8,0.5 -2.7,0.6 -0.1,0 -0.2,0 -0.3,0 -0.5,0 -1,0.1 -1.5,0.1 -0.2,0 -0.5,0 -0.7,0 -1.8,-0.1 -3.5,-0.5 -5,-1.1 V 409 401.7 c 0,-2.2 1.3,-4.1 3.1,-5.1 v -0.1 l -1.9,-2.3 c -2.5,1.5 -4.2,4.3 -4.2,7.4 v 18 c -0.1,-0.1 -0.5,-0.5 -0.7,-0.8 l -0.5,1 c 2.1,2.2 5.8,3.7 9.9,3.7 2.5,0 4.9,-0.6 6.8,-1.5 l -0.8,-0.5 c 0,0 0,0 0,0 z"
       enable-background="new    "
       id="path38" /></g></svg>