<svg id="Capa_1" data-name="Capa 1" xmlns="http://www.w3.org/2000/svg" viewBox="0 0 24 24"><title>shield</title><path d="M17.75,12h-2V8.28H12V2H2A2,2,0,0,0,0,4v19.1A.87.87,0,0,0,.88,24H4.61v-15a2,2,0,1,1,1,0V24h1V15.11a2,2,0,0,1,1.13-1.85A2.86,2.86,0,0,1,8.78,13H10a1.93,1.93,0,1,1,0,1H8.82c-.22,0-1.23.12-1.23,1.13V24h1V20.5a2,2,0,0,1,1.13-1.85,2.83,2.83,0,0,1,1-.28h4.33a1.95,1.95,0,1,1,0,1H10.8c-.22,0-1.23.13-1.23,1.14V24H20a2,2,0,0,0,2-2V12H17.75Z"/><path d="M6,7A1,1,0,1,0,5,8,1,1,0,0,0,6,7Z"/><path d="M12.83,13.55a1,1,0,1,0-1,1A1,1,0,0,0,12.83,13.55Z"/><path d="M17.92,18.94a1,1,0,1,0-1,1A1,1,0,0,0,17.92,18.94Z"/><polygon points="21.98 3.72 20.24 3.72 20.24 2.02 20.24 0 17.75 0 17.75 1.99 17.75 3.72 14 3.72 14 6.28 17.75 6.28 17.75 10 20.24 10 20.24 6.28 22.01 6.28 24 6.28 24 3.72 21.98 3.72"/></svg>